<svg width="21" height="15" viewBox="0 0 21 15" fill="none" xmlns="http://www.w3.org/2000/svg">
<path fill-rule="evenodd" clip-rule="evenodd" d="M20.5844 7.90679C19.0131 11.4119 14.6684 14.45 10.5 14.45C6.41122 14.45 2.66281 11.7851 0.451414 7.9766C0.314269 7.74041 0.316365 7.44833 0.456886 7.21413C2.72651 3.43143 6.45719 0.75 10.5 0.75C14.7156 0.75 19.0476 3.74658 20.5882 7.30179C20.6719 7.49505 20.6705 7.7146 20.5844 7.90679ZM10.5 2.25C7.18676 2.25 4.0161 4.43841 1.97916 7.60597C3.96514 10.7827 7.14174 12.95 10.5 12.95C13.935 12.95 17.6197 10.4547 19.0714 7.5949C17.648 4.70506 13.9817 2.25 10.5 2.25ZM10.5 11.15C8.5394 11.15 6.95001 9.56061 6.95001 7.6C6.95001 5.63939 8.5394 4.05 10.5 4.05C12.4606 4.05 14.05 5.63939 14.05 7.6C14.05 9.56061 12.4606 11.15 10.5 11.15ZM10.5 9.65C11.6322 9.65 12.55 8.73218 12.55 7.6C12.55 6.46782 11.6322 5.55 10.5 5.55C9.36782 5.55 8.45001 6.46782 8.45001 7.6C8.45001 8.73218 9.36782 9.65 10.5 9.65Z" fill="white"/>
</svg>
