<svg width="26" height="23" viewBox="0 0 26 23" fill="none" xmlns="http://www.w3.org/2000/svg">
<path d="M25.3004 10L14.7004 0.6C14.2004 0.2 13.6004 0 13.0004 0C12.4004 0 11.8004 0.2 11.3004 0.6L7.20039 4.3C6.90039 4.6 6.80039 5 7.10039 5.3C7.40039 5.6 7.80039 5.6 8.10039 5.4L12.4004 1.6C12.6004 1.5 12.8004 1.4 13.0004 1.4C13.2004 1.4 13.5004 1.5 13.6004 1.6L24.2004 11C24.5004 11.3 24.5004 11.8 24.2004 12.1C24.0004 12.3 23.8004 12.3 23.6004 12.3H22.4004C22.0004 12.3 21.6004 12.6 21.6004 13V20.6C21.6004 21.2 21.0004 21.7 20.3004 21.7H17.0004V17C17.0004 15.6 15.7004 14.5 14.2004 14.5H11.8004C10.3004 14.5 9.00039 15.6 9.00039 17V21.7H5.60039C4.90039 21.7 4.30039 21.2 4.30039 20.6V13C4.30039 12.6 4.00039 12.3 3.50039 12.3H2.40039C2.20039 12.3 2.00039 12.2 1.80039 12.1C1.50039 11.8 1.50039 11.3 1.80039 11L5.30039 7.9C5.60039 7.6 5.60039 7.2 5.40039 6.9C5.10039 6.6 4.70039 6.6 4.40039 6.8L0.700391 10C-0.199609 10.8 -0.199609 12.2 0.700391 13C1.10039 13.4 1.70039 13.6 2.30039 13.6C2.30039 13.6 2.30039 13.6 2.40039 13.6H2.80039V20.5C2.80039 21.9 4.10039 23 5.60039 23H9.70039C10.1004 23 10.5004 22.7 10.5004 22.3V16.9C10.5004 16.3 11.1004 15.8 11.8004 15.8H14.2004C14.9004 15.8 15.5004 16.3 15.5004 16.9V22.3C15.5004 22.7 15.8004 23 16.3004 23H20.4004C21.9004 23 23.2004 21.9 23.2004 20.5V13.6H23.6004C24.2004 13.6 24.8004 13.4 25.3004 13C26.2004 12.2 26.2004 10.8 25.3004 10Z" fill="#6081FA"/>
</svg>
