<svg width="26" height="23" viewBox="0 0 26 23" fill="none" xmlns="http://www.w3.org/2000/svg">
<path d="M25.3 10V10L14.7 0.6C14.2 0.2 13.6 0 13 0C12.4 0 11.8 0.2 11.3 0.6L7.19999 4.3C6.89999 4.6 6.79999 5 7.09999 5.3V5.3C7.39999 5.6 7.79999 5.6 8.09999 5.4L12.4 1.6C12.6 1.5 12.8 1.4 13 1.4C13.2 1.4 13.5 1.5 13.6 1.6L24.2 11V11C24.5 11.3 24.5 11.8 24.2 12.1C24 12.3 23.8 12.3 23.6 12.3H22.4C22 12.3 21.6 12.6 21.6 13V20.6C21.6 21.2 21 21.7 20.3 21.7H17V17C17 15.6 15.7 14.5 14.2 14.5H11.8C10.3 14.5 8.99999 15.6 8.99999 17V21.7H5.59999C4.89999 21.7 4.29999 21.2 4.29999 20.6V13C4.29999 12.6 3.99999 12.3 3.49999 12.3H2.39999C2.19999 12.3 1.99999 12.2 1.79999 12.1C1.49999 11.8 1.49999 11.3 1.79999 11V11L5.29999 7.9C5.59999 7.6 5.59999 7.2 5.39999 6.9V6.9C5.09999 6.6 4.69999 6.6 4.39999 6.8L0.699994 10V10C-0.200006 10.8 -0.200006 12.2 0.699994 13C1.09999 13.4 1.69999 13.6 2.29999 13.6C2.29999 13.6 2.29999 13.6 2.39999 13.6H2.79999V20.5C2.79999 21.9 4.09999 23 5.59999 23H9.69999C10.1 23 10.5 22.7 10.5 22.3V16.9C10.5 16.3 11.1 15.8 11.8 15.8H14.2C14.9 15.8 15.5 16.3 15.5 16.9V22.3C15.5 22.7 15.8 23 16.3 23H20.4C21.9 23 23.2 21.9 23.2 20.5V13.6H23.6C24.2 13.6 24.8 13.4 25.3 13C26.2 12.2 26.2 10.8 25.3 10Z" fill="#9194BB"/>
</svg>
