<svg width="17" height="18" viewBox="0 0 17 18" fill="none" xmlns="http://www.w3.org/2000/svg">
<path fill-rule="evenodd" clip-rule="evenodd" d="M3.81212 6.61622V4.32973C3.81212 1.91372 5.87683 0 8.39697 0C10.9553 0 12.9818 1.94982 12.9818 4.32973V6.61622H14.5788C15.9328 6.61622 17 7.62401 17 8.9027L16.9953 15.7941C16.8507 17.0233 15.8164 18 14.5788 18H2.42121C1.06717 18 0 16.9922 0 15.7135V8.9027C0 7.62401 1.06717 6.61622 2.42121 6.61622H3.81212ZM11.4364 6.61622V4.32973C11.4364 2.74982 10.0953 1.45946 8.39697 1.45946C6.72397 1.45946 5.35758 2.72592 5.35758 4.32973V6.61622H11.4364ZM15.4545 15.7135C15.3978 16.1551 14.9897 16.5405 14.5788 16.5405H2.42121C1.9207 16.5405 1.54545 16.1862 1.54545 15.7135V8.9027C1.54545 8.43005 1.9207 8.07568 2.42121 8.07568H14.5788C15.0793 8.07568 15.4545 8.43005 15.4545 8.9027V15.7135ZM7.72727 12.3081C7.72727 11.9051 8.07323 11.5784 8.5 11.5784C8.92677 11.5784 9.27273 11.9051 9.27273 12.3081V14.0595C9.27273 14.4625 8.92677 14.7892 8.5 14.7892C8.07323 14.7892 7.72727 14.4625 7.72727 14.0595V12.3081Z" fill="white"/>
</svg>
