<svg width="55" height="55" viewBox="0 0 55 55" fill="none" xmlns="http://www.w3.org/2000/svg">
<g id="Logo_symbol_white">
<path id="Shape" opacity="0.597354" d="M27.4418 54.9391C42.0471 54.9022 53.9624 43.4093 54.7239 28.9354C54.7239 28.9108 54.7239 28.8985 54.7239 28.8738C54.7362 28.6767 54.7362 28.4797 54.7485 28.2826C54.7485 28.2456 54.7485 28.2087 54.7485 28.1594C54.7485 27.9253 54.7608 27.6913 54.7608 27.4572C54.7608 27.2232 54.7608 26.9892 54.7485 26.7551C54.7485 26.7182 54.7485 26.6812 54.7485 26.6319C54.7485 26.4348 54.7362 26.2377 54.7239 26.0407C54.7239 26.016 54.7239 26.0037 54.7239 25.9791C53.9624 11.5298 42.0471 0.0369546 27.4418 0C15.846 0.0246364 5.94532 7.28005 1.97768 17.5041H8.99168C12.5294 11.0125 19.396 6.61487 27.2944 6.61487C27.3313 6.61487 27.3804 6.61487 27.4172 6.61487C27.4541 6.61487 27.4787 6.61487 27.5032 6.61487C32.0973 6.61487 36.3475 8.10537 39.7869 10.6429C41.4207 11.8624 42.8745 13.3272 44.1108 14.9173C46.7395 18.4157 48.2996 22.764 48.2996 27.4819C48.2996 32.1997 46.7395 36.5481 44.1108 40.0464L44.0371 39.9725C42.821 41.6108 41.3838 43.0644 39.7501 44.2839L39.7869 44.3208C38.4603 45.294 36.9985 46.1193 35.4631 46.7598C32.9572 47.8315 30.1934 48.4351 27.2821 48.4351C16.8778 48.4351 8.25465 40.7978 6.69462 30.8078H13.4507V24.156H0.307093C0.171972 25.24 0.110554 26.3486 0.110554 27.4819C0.110554 42.6209 12.3451 54.9022 27.4418 54.9391Z" fill="url(#paint0_linear_0_176)"/>
<path id="Shape_2" opacity="0.900925" d="M22.0247 37.4966L17.3446 32.8033L38.1532 11.9486L44.2502 5.81942C44.2502 5.81942 47.1495 8.18813 48.9026 10.4752C39.8039 19.6658 22.0247 37.4966 22.0247 37.4966Z" fill="url(#paint1_linear_0_176)"/>
<path id="Shape_3" opacity="0.6" d="M25.9432 6.65182C26.4345 6.61487 26.9382 6.60255 27.4295 6.60255C28.5719 6.60255 29.6897 6.70109 30.7707 6.87355C30.8444 6.88587 30.9181 6.89819 30.9918 6.9105C31.1392 6.93514 31.2866 6.95978 31.434 6.99673C31.6551 7.03369 31.8762 7.08296 32.0973 7.13223C32.1219 7.13223 32.1465 7.14455 32.171 7.14455C34.9594 7.78509 37.5513 8.99228 39.7869 10.6429L39.8606 10.7168C41.4452 11.8871 42.8579 13.2913 44.0494 14.8557L44.1108 14.9173C45.0075 16.1122 45.7814 17.3933 46.4079 18.7729C46.4447 18.8591 46.4816 18.9331 46.5184 19.0193C46.543 19.0809 46.5798 19.1548 46.6044 19.2164C47.3783 20.9902 47.9065 22.8995 48.1644 24.8827C47.3169 12.6631 38.4849 2.63609 26.8645 0.0246353C15.5143 0.283317 5.87161 7.46482 1.96539 17.5165H8.97939C12.3206 11.382 18.6221 7.11991 25.9432 6.65182Z" fill="#D2DEFF"/>
<path id="Shape_4" opacity="0.4" d="M21.4842 54.2739C33.9767 53.9906 44.4056 45.3063 47.3783 33.641C46.6535 35.9691 45.548 38.1248 44.1108 40.0341L44.0371 39.9602C42.821 41.5985 41.3838 43.0521 39.7501 44.2716L39.7869 44.3085C38.4603 45.2817 36.9985 46.107 35.4631 46.7475C32.9572 47.8192 30.1934 48.4228 27.2821 48.4228C16.8778 48.4228 8.25465 40.7855 6.69462 30.7955H13.4507V24.1437H0.307093C0.171972 25.2277 0.110554 26.3363 0.110554 27.4696C0.110554 40.5638 9.24963 51.5147 21.4842 54.2739Z" fill="#E5EDFF"/>
<path id="Shape_5" opacity="0.01" d="M22.0247 37.4966L17.3446 32.8033C17.3446 32.8033 31.9151 18.171 39.5898 10.4987C41.9178 12.1541 44.2951 15.1267 44.2951 15.1267L22.0247 37.4966Z" fill="url(#paint2_linear_0_176)"/>
<path id="Shape_6" opacity="0.298944" d="M17.4183 22.3082L22.0984 17.6273C22.0984 17.6273 38.2451 33.7521 48.8472 44.5227C47.3783 46.5385 44.2265 49.1328 44.2265 49.1328L17.4183 22.3082Z" fill="url(#paint3_linear_0_176)"/>
<path id="Rectangle-path" opacity="0.354934" d="M48.8444 44.5212C47.0118 46.9167 44.2265 49.1314 44.2265 49.1314L17.3822 22.3037L22.0552 17.6308C22.0552 17.6308 43.0215 38.6218 48.8444 44.5212Z" fill="url(#paint4_linear_0_176)"/>
<path id="Shape_7" d="M2.19878 17.5041H8.97939C12.1117 11.7516 17.8728 7.63728 24.6411 6.77501C23.6953 6.65182 22.7372 6.59023 21.7667 6.59023C13.4998 6.59023 6.26469 10.9509 2.19878 17.5041Z" fill="white"/>
<path id="Shape_8" d="M7.37023 24.1437H0.319377C1.09325 31.3005 6.47352 39.2704 12.9225 42.6456C8.90569 38.9255 5.4294 33.3946 7.37023 24.1437Z" fill="white"/>
<path id="Shape_9" opacity="0.354934" d="M48.9027 10.4772C47.063 8.16 44.2494 5.82581 44.2494 5.82581L27.2944 22.8379L22.0493 17.5534L17.4429 22.1604C17.4306 22.2097 17.4306 22.259 17.4183 22.3082L22.6143 27.5188L17.3569 32.791L22.0247 37.4719L27.2821 32.1997L39.5639 44.469C39.5639 44.469 42.4123 42.298 44.2494 39.8345C39.8455 35.3731 31.9499 27.5188 31.9499 27.5188C31.9499 27.5188 44.1122 15.3266 48.9027 10.4772Z" fill="url(#paint5_linear_0_176)"/>
<path id="Shape_10" opacity="0.728469" fill-rule="evenodd" clip-rule="evenodd" d="M54.7239 26.053C54.7362 26.2501 54.7485 26.4472 54.7485 26.6442V26.7551C54.7608 26.9892 54.7608 27.2232 54.7608 27.4572C54.7608 27.5743 54.7577 27.6913 54.7546 27.8083C54.7516 27.9253 54.7485 28.0424 54.7485 28.1594V28.2826C54.7424 28.3811 54.7393 28.4797 54.7362 28.5782C54.7332 28.6767 54.7301 28.7753 54.7239 28.8738V28.9354C54.4046 34.9837 52.1321 40.5145 48.5329 44.8998C39.3324 44.4687 29.616 36.893 29.5915 27.5558C29.5915 18.194 39.3079 10.4705 48.5329 10.027C52.1321 14.4123 54.4046 19.9432 54.7239 25.9914V26.053ZM30.7768 27.5312C31.3695 27.5158 31.9622 27.5004 31.9622 27.5065L30.7768 27.5312ZM44.2828 15.1267L31.9622 27.5065L44.2459 39.837C46.8009 36.3756 48.3118 32.0889 48.3118 27.4572C48.3118 22.8502 46.8132 18.5882 44.2828 15.1267ZM44.1253 14.905L44.1108 14.9195L44.2265 15.0496C44.2079 15.0125 44.1835 14.9814 44.1607 14.9524C44.1479 14.9361 44.1356 14.9206 44.1253 14.905Z" fill="url(#paint6_linear_0_176)"/>
</g>
<defs>
<linearGradient id="paint0_linear_0_176" x1="54.7608" y1="0" x2="0.110554" y2="0" gradientUnits="userSpaceOnUse">
<stop stop-color="white" stop-opacity="0.59675"/>
<stop offset="1" stop-color="white"/>
</linearGradient>
<linearGradient id="paint1_linear_0_176" x1="37.9671" y1="-0.316623" x2="12.6898" y2="8.92131" gradientUnits="userSpaceOnUse">
<stop stop-color="white" stop-opacity="0.01"/>
<stop offset="0.743709" stop-color="white"/>
<stop offset="1" stop-color="white"/>
</linearGradient>
<linearGradient id="paint2_linear_0_176" x1="34.9562" y1="5.2691" x2="13.3797" y2="13.1704" gradientUnits="userSpaceOnUse">
<stop stop-color="white" stop-opacity="0.01"/>
<stop offset="0.647913" stop-color="white"/>
<stop offset="1" stop-color="white"/>
</linearGradient>
<linearGradient id="paint3_linear_0_176" x1="52.2689" y1="22.6311" x2="20.0918" y2="17.2867" gradientUnits="userSpaceOnUse">
<stop stop-color="white" stop-opacity="0.01"/>
<stop offset="0.742026" stop-color="white"/>
<stop offset="1" stop-color="white"/>
</linearGradient>
<linearGradient id="paint4_linear_0_176" x1="49.0308" y1="44.6062" x2="22.0475" y2="17.6229" gradientUnits="userSpaceOnUse">
<stop stop-color="white" stop-opacity="0.01"/>
<stop offset="1" stop-color="white"/>
</linearGradient>
<linearGradient id="paint5_linear_0_176" x1="48.9064" y1="5.8317" x2="17.3563" y2="5.8317" gradientUnits="userSpaceOnUse">
<stop stop-color="white" stop-opacity="0.01"/>
<stop offset="0.655989" stop-color="white"/>
<stop offset="1" stop-color="white"/>
</linearGradient>
<linearGradient id="paint6_linear_0_176" x1="54.7635" y1="10.0315" x2="29.5917" y2="10.0315" gradientUnits="userSpaceOnUse">
<stop stop-color="white" stop-opacity="0.01"/>
<stop offset="0.178147" stop-color="white" stop-opacity="0.448794"/>
<stop offset="0.589277" stop-color="white"/>
<stop offset="1" stop-color="white"/>
</linearGradient>
</defs>
</svg>
