<svg width="26" height="23" viewBox="0 0 26 23" fill="none" xmlns="http://www.w3.org/2000/svg">
<path d="M24.5191 18.021C24.5191 18.3603 24.5191 18.9676 24.5191 19.7498C24.4229 21.0959 23.3652 22.0575 22.1152 22.0575H0.865234L9.9037 13.0968C10.1922 12.8084 10.6729 12.7122 11.0575 12.9045L16.1537 15.2122C16.5383 15.4045 17.0191 15.3084 17.3075 15.0199L24.5191 8.48145C24.5191 11.6785 24.5191 13.0647 24.5191 14.6632" stroke="#9EA1C6" stroke-width="1.5" stroke-linecap="round" stroke-linejoin="round"/>
<path d="M0.865234 14.9554L9.51908 6.76536C9.80754 6.4769 10.2883 6.38075 10.6729 6.57305L15.2883 8.68844C15.7691 8.88075 16.2498 8.78459 16.6345 8.49613L23.3652 2.34229" stroke="#9EA1C6" stroke-width="1.5" stroke-linecap="round" stroke-linejoin="round"/>
<path d="M20.3848 1.18848H23.7502C24.1348 1.18848 24.4232 1.47694 24.4232 1.95771V5.5154" stroke="#9EA1C6" stroke-width="1.5" stroke-linecap="round" stroke-linejoin="round"/>
</svg>
