<svg width="27" height="25" viewBox="0 0 27 25" fill="none" xmlns="http://www.w3.org/2000/svg">
<path d="M25.2998 19.6001V21.3001C25.2998 22.7001 24.0998 23.9001 22.6998 23.9001H3.3998C1.9998 23.9001 0.799805 22.7001 0.799805 21.3001V19.6001" stroke="#6081FA" stroke-width="1.5" stroke-linecap="round" stroke-linejoin="round"/>
<path d="M0.799805 15.4001V10.1001" stroke="#6081FA" stroke-width="1.5" stroke-linecap="round" stroke-linejoin="round"/>
<path d="M25.2998 15.4001V10.1001" stroke="#6081FA" stroke-width="1.5" stroke-linecap="round" stroke-linejoin="round"/>
<path fill-rule="evenodd" clip-rule="evenodd" d="M25.2998 18.7998V21.2998C25.2998 22.6998 24.0998 23.8998 22.6998 23.8998H20.2998C20.3998 21.0998 22.5998 18.8998 25.2998 18.7998Z" stroke="#6081FA" stroke-width="1.5" stroke-linecap="round" stroke-linejoin="round"/>
<path fill-rule="evenodd" clip-rule="evenodd" d="M0.799805 18.7998V21.2998C0.799805 22.6998 1.9998 23.8998 3.3998 23.8998H5.7998C5.6998 21.0998 3.5998 18.8998 0.799805 18.7998Z" stroke="#6081FA" stroke-width="1.5" stroke-linecap="round" stroke-linejoin="round"/>
<path fill-rule="evenodd" clip-rule="evenodd" d="M25.2998 10.1002C25.2998 12.3002 23.4998 14.1002 21.2998 14.1002H14.3998V13.6002C14.3998 12.9002 13.7998 12.3002 13.0998 12.3002C12.3998 12.3002 11.7998 12.9002 11.7998 13.6002V14.0002H4.7998C2.5998 14.0002 0.799805 12.2002 0.799805 10.0002V9.3002C0.799805 8.3002 1.3998 7.3002 2.3998 7.0002C2.6998 6.8002 2.9998 6.7002 3.3998 6.7002H22.7998C23.0998 6.7002 23.3998 6.8002 23.6998 6.9002C24.6998 7.3002 25.2998 8.2002 25.2998 9.2002V10.1002Z" stroke="#6081FA" stroke-width="1.5" stroke-linecap="round" stroke-linejoin="round"/>
<path fill-rule="evenodd" clip-rule="evenodd" d="M18.3 6.7H8C8 3.9 10.3 1.5 13.2 1.5C16.1 1.5 18.3 3.9 18.3 6.7Z" stroke="#6081FA" stroke-width="1.5" stroke-linecap="round" stroke-linejoin="round"/>
<path fill-rule="evenodd" clip-rule="evenodd" d="M14.3998 13.6999V14.7999C14.3998 15.4999 13.7998 16.0999 13.0998 16.0999C12.3998 16.0999 11.7998 15.4999 11.7998 14.7999V13.6999C11.7998 12.9999 12.3998 12.3999 13.0998 12.3999C13.7998 12.3999 14.3998 12.8999 14.3998 13.6999Z" stroke="#6081FA" stroke-width="1.5" stroke-linecap="round" stroke-linejoin="round"/>
</svg>
