<svg width="18" height="18" viewBox="0 0 18 18" fill="none" xmlns="http://www.w3.org/2000/svg">
<g id="Search icon">
<path id="Combined Shape" fill-rule="evenodd" clip-rule="evenodd" d="M8.5 17C3.80558 17 0 13.1944 0 8.5C0 3.80558 3.80558 0 8.5 0C13.1944 0 17 3.80558 17 8.5C17 10.4872 16.3181 12.3151 15.1754 13.7626C15.1862 13.7724 15.1967 13.7825 15.2071 13.7929L17.7071 16.2929C18.0976 16.6834 18.0976 17.3166 17.7071 17.7071C17.3166 18.0976 16.6834 18.0976 16.2929 17.7071L13.7929 15.2071C13.7825 15.1967 13.7724 15.1862 13.7626 15.1754C12.3151 16.3181 10.4872 17 8.5 17ZM8.5 15C12.0899 15 15 12.0899 15 8.5C15 4.91015 12.0899 2 8.5 2C4.91015 2 2 4.91015 2 8.5C2 12.0899 4.91015 15 8.5 15Z" fill="#40466D"/>
</g>
</svg>
