<svg width="17" height="16" viewBox="0 0 17 16" fill="none" xmlns="http://www.w3.org/2000/svg">
<path fill-rule="evenodd" clip-rule="evenodd" d="M4.26818 4.55454C4.26818 6.76117 6.057 8.54999 8.26363 8.54999C10.4703 8.54999 12.2591 6.76117 12.2591 4.55454C12.2591 2.34791 10.4703 0.559082 8.26363 0.559082C6.057 0.559082 4.26818 2.34791 4.26818 4.55454ZM10.7591 4.55454C10.7591 5.93274 9.64183 7.04999 8.26363 7.04999C6.88543 7.04999 5.76818 5.93274 5.76818 4.55454C5.76818 3.17634 6.88543 2.05908 8.26363 2.05908C9.64183 2.05908 10.7591 3.17634 10.7591 4.55454ZM16.2773 14.9912C16.2697 12.3557 12.84 8.75454 8.26363 8.75454C3.66695 8.75454 0.256767 12.4223 0.250004 14.9923C0.249997 14.9949 0.249994 14.9974 0.249994 15C0.249994 15.0095 0.250169 15.0189 0.250517 15.0283C0.250061 15.0163 0.249889 15.0043 0.250004 14.9923" fill="white"/>
</svg>
