<svg width="29" height="25" viewBox="0 0 29 25" fill="none" xmlns="http://www.w3.org/2000/svg">
<path fill-rule="evenodd" clip-rule="evenodd" d="M1.71973 18.7002V21.2002C1.71973 22.6002 2.91973 23.8002 4.31973 23.8002H6.71973C6.61973 21.0002 4.41973 18.8002 1.71973 18.7002Z" stroke="#6081FA" stroke-width="1.5" stroke-linecap="round" stroke-linejoin="round"/>
<path d="M1.7002 13.9999V7.3999C1.7002 5.9999 2.8002 4.8999 4.2002 4.8999L13.475 4.8999" stroke="#6081FA" stroke-width="1.5" stroke-linecap="round" stroke-linejoin="round"/>
<path d="M26.3002 17.8997V21.2997C26.3002 22.6997 25.2002 23.7997 23.8002 23.7997H4.2002C2.8002 23.7997 1.7002 22.6997 1.7002 21.2997V17.6997" stroke="#6081FA" stroke-width="1.5" stroke-linecap="round" stroke-linejoin="round"/>
<path d="M22.8945 4.8999H23.7C25.1 4.8999 26.2 5.9999 26.2 7.3999V13.2999" stroke="#6081FA" stroke-width="1.5" stroke-linecap="round" stroke-linejoin="round"/>
<path fill-rule="evenodd" clip-rule="evenodd" d="M24.3001 8.19977H7.56738L19.2586 1.79977C19.9586 1.39977 20.8586 1.69977 21.2586 2.39977L24.3001 8.19977Z" stroke="#6081FA" stroke-width="1.5" stroke-linecap="round" stroke-linejoin="round"/>
<path d="M26.2002 8.19971H24.2002H7.1002H5.2002" stroke="#6081FA" stroke-width="1.5" stroke-linecap="round" stroke-linejoin="round"/>
<path fill-rule="evenodd" clip-rule="evenodd" d="M27.5006 13.2998V17.8998H22.4006C21.1006 17.8998 20.1006 16.8998 20.1006 15.5998C20.1006 14.9998 20.4006 14.3998 20.8006 13.9998C21.2006 13.5998 21.8006 13.2998 22.4006 13.2998H27.5006V13.2998Z" stroke="#6081FA" stroke-width="1.5" stroke-linecap="round" stroke-linejoin="round"/>
<circle cx="23.0002" cy="15.5998" r="0.8" fill="#597AF4"/>
</svg>
